{
    "asset" : {
        "generator" : "Khronos glTF Blender I/O v3.4.49",
        "version" : "2.0"
    },
    "scene" : 0,
    "scenes" : [
        {
            "name" : "Scene",
            "nodes" : [
                0,
                1,
                2
            ]
        }
    ],
    "nodes" : [
        {
            "mesh" : 0,
            "name" : "amphiM-X",
            "rotation" : [
                0,
                -0.2915080487728119,
                0,
                0.9565684199333191
            ],
            "translation" : [
                4.881313800811768,
                0,
                -0.3829675316810608
            ]
        },
        {
            "mesh" : 1,
            "name" : "fac de math",
            "rotation" : [
                0,
                -0.12433171272277832,
                0,
                0.9922407269477844
            ],
            "translation" : [
                290.75994873046875,
                0,
                -200.4873046875
            ]
        },
        {
            "mesh" : 2,
            "name" : "amphiA-L",
            "rotation" : [
                0,
                -0.2915080487728119,
                0,
                0.9565684199333191
            ],
            "translation" : [
                4.881313800811768,
                0,
                -0.3829675316810608
            ]
        }
    ],
    "materials" : [
        {
            "doubleSided" : true,
            "name" : "wall",
            "pbrMetallicRoughness" : {
                "baseColorTexture" : {
                    "index" : 0
                },
                "metallicFactor" : 0,
                "roughnessFactor" : 0.5
            }
        }
    ],
    "meshes" : [
        {
            "name" : "map.osm_buildings.009",
            "primitives" : [
                {
                    "attributes" : {
                        "POSITION" : 0,
                        "TEXCOORD_0" : 1,
                        "NORMAL" : 2
                    },
                    "indices" : 3,
                    "material" : 0
                }
            ]
        },
        {
            "name" : "map.osm_buildings.017",
            "primitives" : [
                {
                    "attributes" : {
                        "POSITION" : 4,
                        "TEXCOORD_0" : 5,
                        "NORMAL" : 6
                    },
                    "indices" : 7,
                    "material" : 0
                }
            ]
        },
        {
            "name" : "map.osm_buildings.041",
            "primitives" : [
                {
                    "attributes" : {
                        "POSITION" : 8,
                        "TEXCOORD_0" : 9,
                        "NORMAL" : 10
                    },
                    "indices" : 11,
                    "material" : 0
                }
            ]
        }
    ],
    "textures" : [
        {
            "sampler" : 0,
            "source" : 0
        }
    ],
    "images" : [
        {
            "mimeType" : "image/png",
            "name" : "usthb_pallette",
            "uri" : "usthb_pallette.png"
        }
    ],
    "accessors" : [
        {
            "bufferView" : 0,
            "componentType" : 5126,
            "count" : 15715,
            "max" : [
                76.65042114257812,
                20.322229385375977,
                414.65771484375
            ],
            "min" : [
                -143.73660278320312,
                10.062215805053711,
                253.52291870117188
            ],
            "type" : "VEC3"
        },
        {
            "bufferView" : 1,
            "componentType" : 5126,
            "count" : 15715,
            "type" : "VEC2"
        },
        {
            "bufferView" : 2,
            "componentType" : 5126,
            "count" : 15715,
            "type" : "VEC3"
        },
        {
            "bufferView" : 3,
            "componentType" : 5123,
            "count" : 26844,
            "type" : "SCALAR"
        },
        {
            "bufferView" : 4,
            "componentType" : 5126,
            "count" : 78512,
            "max" : [
                230.83184814453125,
                42.737972259521484,
                -360.91314697265625
            ],
            "min" : [
                91.87676239013672,
                10.030614852905273,
                -511.27825927734375
            ],
            "type" : "VEC3"
        },
        {
            "bufferView" : 5,
            "componentType" : 5126,
            "count" : 78512,
            "type" : "VEC2"
        },
        {
            "bufferView" : 6,
            "componentType" : 5126,
            "count" : 78512,
            "type" : "VEC3"
        },
        {
            "bufferView" : 7,
            "componentType" : 5125,
            "count" : 130032,
            "type" : "SCALAR"
        },
        {
            "bufferView" : 8,
            "componentType" : 5126,
            "count" : 15256,
            "max" : [
                -27.398414611816406,
                20.322229385375977,
                278.174560546875
            ],
            "min" : [
                -237.48104858398438,
                7.703642845153809,
                122.60916137695312
            ],
            "type" : "VEC3"
        },
        {
            "bufferView" : 9,
            "componentType" : 5126,
            "count" : 15256,
            "type" : "VEC2"
        },
        {
            "bufferView" : 10,
            "componentType" : 5126,
            "count" : 15256,
            "type" : "VEC3"
        },
        {
            "bufferView" : 11,
            "componentType" : 5123,
            "count" : 25482,
            "type" : "SCALAR"
        }
    ],
    "bufferViews" : [
        {
            "buffer" : 0,
            "byteLength" : 188580,
            "byteOffset" : 0,
            "target" : 34962
        },
        {
            "buffer" : 0,
            "byteLength" : 125720,
            "byteOffset" : 188580,
            "target" : 34962
        },
        {
            "buffer" : 0,
            "byteLength" : 188580,
            "byteOffset" : 314300,
            "target" : 34962
        },
        {
            "buffer" : 0,
            "byteLength" : 53688,
            "byteOffset" : 502880,
            "target" : 34963
        },
        {
            "buffer" : 0,
            "byteLength" : 942144,
            "byteOffset" : 556568,
            "target" : 34962
        },
        {
            "buffer" : 0,
            "byteLength" : 628096,
            "byteOffset" : 1498712,
            "target" : 34962
        },
        {
            "buffer" : 0,
            "byteLength" : 942144,
            "byteOffset" : 2126808,
            "target" : 34962
        },
        {
            "buffer" : 0,
            "byteLength" : 520128,
            "byteOffset" : 3068952,
            "target" : 34963
        },
        {
            "buffer" : 0,
            "byteLength" : 183072,
            "byteOffset" : 3589080,
            "target" : 34962
        },
        {
            "buffer" : 0,
            "byteLength" : 122048,
            "byteOffset" : 3772152,
            "target" : 34962
        },
        {
            "buffer" : 0,
            "byteLength" : 183072,
            "byteOffset" : 3894200,
            "target" : 34962
        },
        {
            "buffer" : 0,
            "byteLength" : 50964,
            "byteOffset" : 4077272,
            "target" : 34963
        }
    ],
    "samplers" : [
        {
            "magFilter" : 9728,
            "minFilter" : 9984
        }
    ],
    "buffers" : [
        {
            "byteLength" : 4128236,
            "uri" : "amphis to math.bin"
        }
    ]
}
