{
    "asset" : {
        "generator" : "Khronos glTF Blender I/O v3.4.49",
        "version" : "2.0"
    },
    "scene" : 0,
    "scenes" : [
        {
            "name" : "Scene",
            "nodes" : [
                0,
                1,
                2,
                3,
                4,
                5,
                6,
                7
            ]
        }
    ],
    "nodes" : [
        {
            "mesh" : 0,
            "name" : "village",
            "rotation" : [
                0,
                -0.2915080487728119,
                0,
                0.9565684199333191
            ],
            "translation" : [
                0.3733929991722107,
                0,
                -0.3829675316810608
            ]
        },
        {
            "mesh" : 1,
            "name" : "nv blocs",
            "rotation" : [
                0,
                -0.2915080487728119,
                0,
                0.9565684199333191
            ],
            "translation" : [
                0.3733929991722107,
                0,
                -0.3829675316810608
            ]
        },
        {
            "mesh" : 2,
            "name" : "nv blocs A",
            "rotation" : [
                0,
                -0.2915080487728119,
                0,
                0.9565684199333191
            ],
            "translation" : [
                0.3733929991722107,
                0,
                -0.3829675316810608
            ]
        },
        {
            "mesh" : 3,
            "name" : "nv blocs B",
            "rotation" : [
                0,
                -0.2915080487728119,
                0,
                0.9565684199333191
            ],
            "translation" : [
                0.3733929991722107,
                0,
                -0.3829675316810608
            ]
        },
        {
            "mesh" : 4,
            "name" : "nv blocs C",
            "rotation" : [
                0,
                -0.2915080487728119,
                0,
                0.9565684199333191
            ],
            "translation" : [
                0.3733929991722107,
                0,
                -0.3829675316810608
            ]
        },
        {
            "mesh" : 5,
            "name" : "nv blocs D",
            "rotation" : [
                0,
                -0.2915080487728119,
                0,
                0.9565684199333191
            ],
            "translation" : [
                0.3733929991722107,
                0,
                -0.3829675316810608
            ]
        },
        {
            "mesh" : 6,
            "name" : "nv blocs E",
            "rotation" : [
                0,
                -0.2915080487728119,
                0,
                0.9565684199333191
            ],
            "translation" : [
                0.3733929991722107,
                0,
                -0.3829675316810608
            ]
        },
        {
            "mesh" : 7,
            "name" : "nv blocs F",
            "rotation" : [
                0,
                -0.2915080487728119,
                0,
                0.9565684199333191
            ],
            "translation" : [
                0.3733929991722107,
                0,
                -0.3829675316810608
            ]
        }
    ],
    "materials" : [
        {
            "doubleSided" : true,
            "name" : "wall",
            "pbrMetallicRoughness" : {
                "baseColorTexture" : {
                    "index" : 0
                },
                "metallicFactor" : 0,
                "roughnessFactor" : 0.5
            }
        }
    ],
    "meshes" : [
        {
            "name" : "map.osm_buildings.008",
            "primitives" : [
                {
                    "attributes" : {
                        "POSITION" : 0,
                        "TEXCOORD_0" : 1,
                        "NORMAL" : 2
                    },
                    "indices" : 3,
                    "material" : 0
                }
            ]
        },
        {
            "name" : "map.osm_buildings.012",
            "primitives" : [
                {
                    "attributes" : {
                        "POSITION" : 4,
                        "TEXCOORD_0" : 5,
                        "NORMAL" : 6
                    },
                    "indices" : 7,
                    "material" : 0
                }
            ]
        },
        {
            "name" : "map.osm_buildings.042",
            "primitives" : [
                {
                    "attributes" : {
                        "POSITION" : 8,
                        "TEXCOORD_0" : 9,
                        "NORMAL" : 10
                    },
                    "indices" : 11,
                    "material" : 0
                }
            ]
        },
        {
            "name" : "map.osm_buildings.043",
            "primitives" : [
                {
                    "attributes" : {
                        "POSITION" : 12,
                        "TEXCOORD_0" : 13,
                        "NORMAL" : 14
                    },
                    "indices" : 15,
                    "material" : 0
                }
            ]
        },
        {
            "name" : "map.osm_buildings.044",
            "primitives" : [
                {
                    "attributes" : {
                        "POSITION" : 16,
                        "TEXCOORD_0" : 17,
                        "NORMAL" : 18
                    },
                    "indices" : 19,
                    "material" : 0
                }
            ]
        },
        {
            "name" : "map.osm_buildings.045",
            "primitives" : [
                {
                    "attributes" : {
                        "POSITION" : 20,
                        "TEXCOORD_0" : 21,
                        "NORMAL" : 22
                    },
                    "indices" : 23,
                    "material" : 0
                }
            ]
        },
        {
            "name" : "map.osm_buildings.046",
            "primitives" : [
                {
                    "attributes" : {
                        "POSITION" : 24,
                        "TEXCOORD_0" : 25,
                        "NORMAL" : 26
                    },
                    "indices" : 27,
                    "material" : 0
                }
            ]
        },
        {
            "name" : "map.osm_buildings.048",
            "primitives" : [
                {
                    "attributes" : {
                        "POSITION" : 28,
                        "TEXCOORD_0" : 29,
                        "NORMAL" : 30
                    },
                    "indices" : 31,
                    "material" : 0
                }
            ]
        }
    ],
    "textures" : [
        {
            "sampler" : 0,
            "source" : 0
        }
    ],
    "images" : [
        {
            "mimeType" : "image/png",
            "name" : "usthb_pallette",
            "uri" : "usthb_pallette.png"
        }
    ],
    "accessors" : [
        {
            "bufferView" : 0,
            "componentType" : 5126,
            "count" : 328,
            "max" : [
                -305.01007080078125,
                27.27372932434082,
                286.7405090332031
            ],
            "min" : [
                -498.3333740234375,
                10.016923904418945,
                87.84271240234375
            ],
            "type" : "VEC3"
        },
        {
            "bufferView" : 1,
            "componentType" : 5126,
            "count" : 328,
            "type" : "VEC2"
        },
        {
            "bufferView" : 2,
            "componentType" : 5126,
            "count" : 328,
            "type" : "VEC3"
        },
        {
            "bufferView" : 3,
            "componentType" : 5123,
            "count" : 606,
            "type" : "SCALAR"
        },
        {
            "bufferView" : 4,
            "componentType" : 5126,
            "count" : 10010,
            "max" : [
                152.64488220214844,
                27.84874725341797,
                559.5078125
            ],
            "min" : [
                -50.15974426269531,
                10.011252403259277,
                396.4888000488281
            ],
            "type" : "VEC3"
        },
        {
            "bufferView" : 5,
            "componentType" : 5126,
            "count" : 10010,
            "type" : "VEC2"
        },
        {
            "bufferView" : 6,
            "componentType" : 5126,
            "count" : 10010,
            "type" : "VEC3"
        },
        {
            "bufferView" : 7,
            "componentType" : 5123,
            "count" : 20109,
            "type" : "SCALAR"
        },
        {
            "bufferView" : 8,
            "componentType" : 5126,
            "count" : 29045,
            "max" : [
                -35.80601119995117,
                28.534454345703125,
                530.7827758789062
            ],
            "min" : [
                -98.82286834716797,
                10.019590377807617,
                454.3353271484375
            ],
            "type" : "VEC3"
        },
        {
            "bufferView" : 9,
            "componentType" : 5126,
            "count" : 29045,
            "type" : "VEC2"
        },
        {
            "bufferView" : 10,
            "componentType" : 5126,
            "count" : 29045,
            "type" : "VEC3"
        },
        {
            "bufferView" : 11,
            "componentType" : 5123,
            "count" : 45435,
            "type" : "SCALAR"
        },
        {
            "bufferView" : 12,
            "componentType" : 5126,
            "count" : 28955,
            "max" : [
                32.0361328125,
                28.534454345703125,
                485.4629211425781
            ],
            "min" : [
                -30.980728149414062,
                10.019590377807617,
                409.0154724121094
            ],
            "type" : "VEC3"
        },
        {
            "bufferView" : 13,
            "componentType" : 5126,
            "count" : 28955,
            "type" : "VEC2"
        },
        {
            "bufferView" : 14,
            "componentType" : 5126,
            "count" : 28955,
            "type" : "VEC3"
        },
        {
            "bufferView" : 15,
            "componentType" : 5123,
            "count" : 45300,
            "type" : "SCALAR"
        },
        {
            "bufferView" : 16,
            "componentType" : 5126,
            "count" : 25900,
            "max" : [
                33.52674865722656,
                28.534454345703125,
                548.2503662109375
            ],
            "min" : [
                -32.862640380859375,
                10.019591331481934,
                491.9913024902344
            ],
            "type" : "VEC3"
        },
        {
            "bufferView" : 17,
            "componentType" : 5126,
            "count" : 25900,
            "type" : "VEC2"
        },
        {
            "bufferView" : 18,
            "componentType" : 5126,
            "count" : 25900,
            "type" : "VEC3"
        },
        {
            "bufferView" : 19,
            "componentType" : 5123,
            "count" : 42360,
            "type" : "SCALAR"
        },
        {
            "bufferView" : 20,
            "componentType" : 5126,
            "count" : 29051,
            "max" : [
                62.59433364868164,
                28.534454345703125,
                464.6691589355469
            ],
            "min" : [
                -0.4225243330001831,
                10.019590377807617,
                388.2217102050781
            ],
            "type" : "VEC3"
        },
        {
            "bufferView" : 21,
            "componentType" : 5126,
            "count" : 29051,
            "type" : "VEC2"
        },
        {
            "bufferView" : 22,
            "componentType" : 5126,
            "count" : 29051,
            "type" : "VEC3"
        },
        {
            "bufferView" : 23,
            "componentType" : 5123,
            "count" : 45444,
            "type" : "SCALAR"
        },
        {
            "bufferView" : 24,
            "componentType" : 5126,
            "count" : 28950,
            "max" : [
                130.4364776611328,
                28.534454345703125,
                419.34930419921875
            ],
            "min" : [
                67.41961669921875,
                10.019590377807617,
                342.90185546875
            ],
            "type" : "VEC3"
        },
        {
            "bufferView" : 25,
            "componentType" : 5126,
            "count" : 28950,
            "type" : "VEC2"
        },
        {
            "bufferView" : 26,
            "componentType" : 5126,
            "count" : 28950,
            "type" : "VEC3"
        },
        {
            "bufferView" : 27,
            "componentType" : 5123,
            "count" : 45300,
            "type" : "SCALAR"
        },
        {
            "bufferView" : 28,
            "componentType" : 5126,
            "count" : 25485,
            "max" : [
                131.92709350585938,
                28.534454345703125,
                482.1367492675781
            ],
            "min" : [
                65.53770446777344,
                10.019591331481934,
                425.877685546875
            ],
            "type" : "VEC3"
        },
        {
            "bufferView" : 29,
            "componentType" : 5126,
            "count" : 25485,
            "type" : "VEC2"
        },
        {
            "bufferView" : 30,
            "componentType" : 5126,
            "count" : 25485,
            "type" : "VEC3"
        },
        {
            "bufferView" : 31,
            "componentType" : 5123,
            "count" : 42330,
            "type" : "SCALAR"
        }
    ],
    "bufferViews" : [
        {
            "buffer" : 0,
            "byteLength" : 3936,
            "byteOffset" : 0,
            "target" : 34962
        },
        {
            "buffer" : 0,
            "byteLength" : 2624,
            "byteOffset" : 3936,
            "target" : 34962
        },
        {
            "buffer" : 0,
            "byteLength" : 3936,
            "byteOffset" : 6560,
            "target" : 34962
        },
        {
            "buffer" : 0,
            "byteLength" : 1212,
            "byteOffset" : 10496,
            "target" : 34963
        },
        {
            "buffer" : 0,
            "byteLength" : 120120,
            "byteOffset" : 11708,
            "target" : 34962
        },
        {
            "buffer" : 0,
            "byteLength" : 80080,
            "byteOffset" : 131828,
            "target" : 34962
        },
        {
            "buffer" : 0,
            "byteLength" : 120120,
            "byteOffset" : 211908,
            "target" : 34962
        },
        {
            "buffer" : 0,
            "byteLength" : 40218,
            "byteOffset" : 332028,
            "target" : 34963
        },
        {
            "buffer" : 0,
            "byteLength" : 348540,
            "byteOffset" : 372248,
            "target" : 34962
        },
        {
            "buffer" : 0,
            "byteLength" : 232360,
            "byteOffset" : 720788,
            "target" : 34962
        },
        {
            "buffer" : 0,
            "byteLength" : 348540,
            "byteOffset" : 953148,
            "target" : 34962
        },
        {
            "buffer" : 0,
            "byteLength" : 90870,
            "byteOffset" : 1301688,
            "target" : 34963
        },
        {
            "buffer" : 0,
            "byteLength" : 347460,
            "byteOffset" : 1392560,
            "target" : 34962
        },
        {
            "buffer" : 0,
            "byteLength" : 231640,
            "byteOffset" : 1740020,
            "target" : 34962
        },
        {
            "buffer" : 0,
            "byteLength" : 347460,
            "byteOffset" : 1971660,
            "target" : 34962
        },
        {
            "buffer" : 0,
            "byteLength" : 90600,
            "byteOffset" : 2319120,
            "target" : 34963
        },
        {
            "buffer" : 0,
            "byteLength" : 310800,
            "byteOffset" : 2409720,
            "target" : 34962
        },
        {
            "buffer" : 0,
            "byteLength" : 207200,
            "byteOffset" : 2720520,
            "target" : 34962
        },
        {
            "buffer" : 0,
            "byteLength" : 310800,
            "byteOffset" : 2927720,
            "target" : 34962
        },
        {
            "buffer" : 0,
            "byteLength" : 84720,
            "byteOffset" : 3238520,
            "target" : 34963
        },
        {
            "buffer" : 0,
            "byteLength" : 348612,
            "byteOffset" : 3323240,
            "target" : 34962
        },
        {
            "buffer" : 0,
            "byteLength" : 232408,
            "byteOffset" : 3671852,
            "target" : 34962
        },
        {
            "buffer" : 0,
            "byteLength" : 348612,
            "byteOffset" : 3904260,
            "target" : 34962
        },
        {
            "buffer" : 0,
            "byteLength" : 90888,
            "byteOffset" : 4252872,
            "target" : 34963
        },
        {
            "buffer" : 0,
            "byteLength" : 347400,
            "byteOffset" : 4343760,
            "target" : 34962
        },
        {
            "buffer" : 0,
            "byteLength" : 231600,
            "byteOffset" : 4691160,
            "target" : 34962
        },
        {
            "buffer" : 0,
            "byteLength" : 347400,
            "byteOffset" : 4922760,
            "target" : 34962
        },
        {
            "buffer" : 0,
            "byteLength" : 90600,
            "byteOffset" : 5270160,
            "target" : 34963
        },
        {
            "buffer" : 0,
            "byteLength" : 305820,
            "byteOffset" : 5360760,
            "target" : 34962
        },
        {
            "buffer" : 0,
            "byteLength" : 203880,
            "byteOffset" : 5666580,
            "target" : 34962
        },
        {
            "buffer" : 0,
            "byteLength" : 305820,
            "byteOffset" : 5870460,
            "target" : 34962
        },
        {
            "buffer" : 0,
            "byteLength" : 84660,
            "byteOffset" : 6176280,
            "target" : 34963
        }
    ],
    "samplers" : [
        {
            "magFilter" : 9728,
            "minFilter" : 9984
        }
    ],
    "buffers" : [
        {
            "byteLength" : 6260940,
            "uri" : "village to nv b.bin"
        }
    ]
}
