{
    "asset" : {
        "generator" : "Khronos glTF Blender I/O v3.4.49",
        "version" : "2.0"
    },
    "scene" : 0,
    "scenes" : [
        {
            "name" : "Scene",
            "nodes" : [
                0,
                1
            ]
        }
    ],
    "nodes" : [
        {
            "mesh" : 0,
            "name" : "fac de math",
            "rotation" : [
                0,
                -0.12433171272277832,
                0,
                0.9922407269477844
            ],
            "translation" : [
                290.75994873046875,
                0,
                -200.4873046875
            ]
        },
        {
            "mesh" : 1,
            "name" : "biblio + fac",
            "rotation" : [
                0,
                -0.2915080487728119,
                0,
                0.9565684199333191
            ],
            "translation" : [
                0.3733929991722107,
                0,
                -0.3829675316810608
            ]
        }
    ],
    "materials" : [
        {
            "doubleSided" : true,
            "name" : "wall",
            "pbrMetallicRoughness" : {
                "baseColorTexture" : {
                    "index" : 0
                },
                "metallicFactor" : 0,
                "roughnessFactor" : 0.5
            }
        }
    ],
    "meshes" : [
        {
            "name" : "map.osm_buildings.017",
            "primitives" : [
                {
                    "attributes" : {
                        "POSITION" : 0,
                        "TEXCOORD_0" : 1,
                        "NORMAL" : 2
                    },
                    "indices" : 3,
                    "material" : 0
                }
            ]
        },
        {
            "name" : "map.osm_buildings.036",
            "primitives" : [
                {
                    "attributes" : {
                        "POSITION" : 4,
                        "TEXCOORD_0" : 5,
                        "NORMAL" : 6
                    },
                    "indices" : 7,
                    "material" : 0
                }
            ]
        }
    ],
    "textures" : [
        {
            "sampler" : 0,
            "source" : 0
        }
    ],
    "images" : [
        {
            "mimeType" : "image/png",
            "name" : "usthb_pallette",
            "uri" : "usthb_pallette.png"
        }
    ],
    "accessors" : [
        {
            "bufferView" : 0,
            "componentType" : 5126,
            "count" : 78512,
            "max" : [
                230.83184814453125,
                42.737972259521484,
                -360.91314697265625
            ],
            "min" : [
                91.87676239013672,
                10.030614852905273,
                -511.27825927734375
            ],
            "type" : "VEC3"
        },
        {
            "bufferView" : 1,
            "componentType" : 5126,
            "count" : 78512,
            "type" : "VEC2"
        },
        {
            "bufferView" : 2,
            "componentType" : 5126,
            "count" : 78512,
            "type" : "VEC3"
        },
        {
            "bufferView" : 3,
            "componentType" : 5125,
            "count" : 130032,
            "type" : "SCALAR"
        },
        {
            "bufferView" : 4,
            "componentType" : 5126,
            "count" : 26903,
            "max" : [
                212.59033203125,
                47.665855407714844,
                152.55316162109375
            ],
            "min" : [
                -576.549560546875,
                9.953085899353027,
                -313.5185546875
            ],
            "type" : "VEC3"
        },
        {
            "bufferView" : 5,
            "componentType" : 5126,
            "count" : 26903,
            "type" : "VEC2"
        },
        {
            "bufferView" : 6,
            "componentType" : 5126,
            "count" : 26903,
            "type" : "VEC3"
        },
        {
            "bufferView" : 7,
            "componentType" : 5123,
            "count" : 43059,
            "type" : "SCALAR"
        }
    ],
    "bufferViews" : [
        {
            "buffer" : 0,
            "byteLength" : 942144,
            "byteOffset" : 0,
            "target" : 34962
        },
        {
            "buffer" : 0,
            "byteLength" : 628096,
            "byteOffset" : 942144,
            "target" : 34962
        },
        {
            "buffer" : 0,
            "byteLength" : 942144,
            "byteOffset" : 1570240,
            "target" : 34962
        },
        {
            "buffer" : 0,
            "byteLength" : 520128,
            "byteOffset" : 2512384,
            "target" : 34963
        },
        {
            "buffer" : 0,
            "byteLength" : 322836,
            "byteOffset" : 3032512,
            "target" : 34962
        },
        {
            "buffer" : 0,
            "byteLength" : 215224,
            "byteOffset" : 3355348,
            "target" : 34962
        },
        {
            "buffer" : 0,
            "byteLength" : 322836,
            "byteOffset" : 3570572,
            "target" : 34962
        },
        {
            "buffer" : 0,
            "byteLength" : 86118,
            "byteOffset" : 3893408,
            "target" : 34963
        }
    ],
    "samplers" : [
        {
            "magFilter" : 9728,
            "minFilter" : 9984
        }
    ],
    "buffers" : [
        {
            "byteLength" : 3979528,
            "uri" : "bib to imath.bin"
        }
    ]
}
