{
    "asset" : {
        "generator" : "Khronos glTF Blender I/O v3.3.32",
        "version" : "2.0"
    },
    "scene" : 0,
    "scenes" : [
        {
            "name" : "Scene",
            "nodes" : [
                0
            ]
        }
    ],
    "nodes" : [
        {
            "mesh" : 0,
            "name" : "labo30M$$",
            "rotation" : [
                0,
                -0.19883251190185547,
                0,
                0.9800335168838501
            ],
            "translation" : [
                0.3733929991722107,
                0,
                -0.3829675316810608
            ]
        }
    ],
    "materials" : [
        {
            "doubleSided" : true,
            "name" : "wall",
            "pbrMetallicRoughness" : {
                "baseColorTexture" : {
                    "index" : 0
                },
                "metallicFactor" : 0,
                "roughnessFactor" : 0.5
            }
        }
    ],
    "meshes" : [
        {
            "name" : "map.osm_buildings.023",
            "primitives" : [
                {
                    "attributes" : {
                        "POSITION" : 0,
                        "NORMAL" : 1,
                        "TEXCOORD_0" : 2
                    },
                    "indices" : 3,
                    "material" : 0
                }
            ]
        }
    ],
    "textures" : [
        {
            "sampler" : 0,
            "source" : 0
        }
    ],
    "images" : [
        {
            "mimeType" : "image/png",
            "name" : "usthb_pallette",
            "uri" : "usthb_pallette.png"
        }
    ],
    "accessors" : [
        {
            "bufferView" : 0,
            "componentType" : 5126,
            "count" : 13787,
            "max" : [
                42.22975158691406,
                27.112478256225586,
                -450.2630920410156
            ],
            "min" : [
                -45.42844772338867,
                10.016921997070312,
                -517.2933349609375
            ],
            "type" : "VEC3"
        },
        {
            "bufferView" : 1,
            "componentType" : 5126,
            "count" : 13787,
            "type" : "VEC3"
        },
        {
            "bufferView" : 2,
            "componentType" : 5126,
            "count" : 13787,
            "type" : "VEC2"
        },
        {
            "bufferView" : 3,
            "componentType" : 5123,
            "count" : 24696,
            "type" : "SCALAR"
        }
    ],
    "bufferViews" : [
        {
            "buffer" : 0,
            "byteLength" : 165444,
            "byteOffset" : 0,
            "target" : 34962
        },
        {
            "buffer" : 0,
            "byteLength" : 165444,
            "byteOffset" : 165444,
            "target" : 34962
        },
        {
            "buffer" : 0,
            "byteLength" : 110296,
            "byteOffset" : 330888,
            "target" : 34962
        },
        {
            "buffer" : 0,
            "byteLength" : 49392,
            "byteOffset" : 441184,
            "target" : 34963
        }
    ],
    "samplers" : [
        {
            "magFilter" : 9728,
            "minFilter" : 9984
        }
    ],
    "buffers" : [
        {
            "byteLength" : 490576,
            "uri" : "labo.bin"
        }
    ]
}
