{
    "asset" : {
        "generator" : "Khronos glTF Blender I/O v3.4.49",
        "version" : "2.0"
    },
    "scene" : 0,
    "scenes" : [
        {
            "name" : "Scene",
            "nodes" : [
                0,
                1
            ]
        }
    ],
    "nodes" : [
        {
            "mesh" : 0,
            "name" : "rectorat",
            "rotation" : [
                0,
                -0.2915080487728119,
                0,
                0.9565684199333191
            ],
            "translation" : [
                0.3733929991722107,
                0,
                -0.3829675316810608
            ]
        },
        {
            "mesh" : 1,
            "name" : "village",
            "rotation" : [
                0,
                -0.2915080487728119,
                0,
                0.9565684199333191
            ],
            "translation" : [
                0.3733929991722107,
                0,
                -0.3829675316810608
            ]
        }
    ],
    "materials" : [
        {
            "doubleSided" : true,
            "name" : "wall",
            "pbrMetallicRoughness" : {
                "baseColorTexture" : {
                    "index" : 0
                },
                "metallicFactor" : 0,
                "roughnessFactor" : 0.5
            }
        }
    ],
    "meshes" : [
        {
            "name" : "map.osm_buildings.004",
            "primitives" : [
                {
                    "attributes" : {
                        "POSITION" : 0,
                        "TEXCOORD_0" : 1,
                        "NORMAL" : 2
                    },
                    "indices" : 3,
                    "material" : 0
                }
            ]
        },
        {
            "name" : "map.osm_buildings.008",
            "primitives" : [
                {
                    "attributes" : {
                        "POSITION" : 4,
                        "TEXCOORD_0" : 5,
                        "NORMAL" : 6
                    },
                    "indices" : 7,
                    "material" : 0
                }
            ]
        }
    ],
    "textures" : [
        {
            "sampler" : 0,
            "source" : 0
        }
    ],
    "images" : [
        {
            "mimeType" : "image/png",
            "name" : "usthb_pallette",
            "uri" : "usthb_pallette.png"
        }
    ],
    "accessors" : [
        {
            "bufferView" : 0,
            "componentType" : 5126,
            "count" : 13381,
            "max" : [
                -300.9187927246094,
                27.827852249145508,
                23.18701171875
            ],
            "min" : [
                -404.6346435546875,
                10.015978813171387,
                -103.63997650146484
            ],
            "type" : "VEC3"
        },
        {
            "bufferView" : 1,
            "componentType" : 5126,
            "count" : 13381,
            "type" : "VEC2"
        },
        {
            "bufferView" : 2,
            "componentType" : 5126,
            "count" : 13381,
            "type" : "VEC3"
        },
        {
            "bufferView" : 3,
            "componentType" : 5123,
            "count" : 21960,
            "type" : "SCALAR"
        },
        {
            "bufferView" : 4,
            "componentType" : 5126,
            "count" : 328,
            "max" : [
                -305.01007080078125,
                27.27372932434082,
                286.7405090332031
            ],
            "min" : [
                -498.3333740234375,
                10.016923904418945,
                87.84271240234375
            ],
            "type" : "VEC3"
        },
        {
            "bufferView" : 5,
            "componentType" : 5126,
            "count" : 328,
            "type" : "VEC2"
        },
        {
            "bufferView" : 6,
            "componentType" : 5126,
            "count" : 328,
            "type" : "VEC3"
        },
        {
            "bufferView" : 7,
            "componentType" : 5123,
            "count" : 606,
            "type" : "SCALAR"
        }
    ],
    "bufferViews" : [
        {
            "buffer" : 0,
            "byteLength" : 160572,
            "byteOffset" : 0,
            "target" : 34962
        },
        {
            "buffer" : 0,
            "byteLength" : 107048,
            "byteOffset" : 160572,
            "target" : 34962
        },
        {
            "buffer" : 0,
            "byteLength" : 160572,
            "byteOffset" : 267620,
            "target" : 34962
        },
        {
            "buffer" : 0,
            "byteLength" : 43920,
            "byteOffset" : 428192,
            "target" : 34963
        },
        {
            "buffer" : 0,
            "byteLength" : 3936,
            "byteOffset" : 472112,
            "target" : 34962
        },
        {
            "buffer" : 0,
            "byteLength" : 2624,
            "byteOffset" : 476048,
            "target" : 34962
        },
        {
            "buffer" : 0,
            "byteLength" : 3936,
            "byteOffset" : 478672,
            "target" : 34962
        },
        {
            "buffer" : 0,
            "byteLength" : 1212,
            "byteOffset" : 482608,
            "target" : 34963
        }
    ],
    "samplers" : [
        {
            "magFilter" : 9728,
            "minFilter" : 9984
        }
    ],
    "buffers" : [
        {
            "byteLength" : 483820,
            "uri" : "village to rectorat.bin"
        }
    ]
}
