{
    "asset" : {
        "generator" : "Khronos glTF Blender I/O v3.4.49",
        "version" : "2.0"
    },
    "scene" : 0,
    "scenes" : [
        {
            "name" : "Scene",
            "nodes" : [
                0,
                1,
                2,
                3
            ]
        }
    ],
    "nodes" : [
        {
            "mesh" : 0,
            "name" : "100-200",
            "rotation" : [
                0,
                -0.2915080487728119,
                0,
                0.9565684199333191
            ],
            "translation" : [
                0.3733929991722107,
                0,
                -0.3829675316810608
            ]
        },
        {
            "mesh" : 1,
            "name" : "100-400.002",
            "rotation" : [
                0,
                -0.2915080487728119,
                0,
                0.9565684199333191
            ],
            "translation" : [
                0.3733929991722107,
                0,
                -0.3829675316810608
            ]
        },
        {
            "mesh" : 2,
            "name" : "fac de math",
            "rotation" : [
                0,
                -0.12433171272277832,
                0,
                0.9922407269477844
            ],
            "translation" : [
                290.75994873046875,
                0,
                -200.4873046875
            ]
        },
        {
            "mesh" : 3,
            "name" : "300-400",
            "rotation" : [
                0,
                -0.2915080487728119,
                0,
                0.9565684199333191
            ],
            "translation" : [
                4.881313800811768,
                0,
                -0.3829675316810608
            ]
        }
    ],
    "materials" : [
        {
            "doubleSided" : true,
            "name" : "wall",
            "pbrMetallicRoughness" : {
                "baseColorTexture" : {
                    "index" : 0
                },
                "metallicFactor" : 0,
                "roughnessFactor" : 0.5
            }
        }
    ],
    "meshes" : [
        {
            "name" : "map.osm_buildings.016",
            "primitives" : [
                {
                    "attributes" : {
                        "POSITION" : 0,
                        "TEXCOORD_0" : 1,
                        "NORMAL" : 2
                    },
                    "indices" : 3,
                    "material" : 0
                }
            ]
        },
        {
            "name" : "map.osm_buildings.014",
            "primitives" : [
                {
                    "attributes" : {
                        "POSITION" : 4,
                        "TEXCOORD_0" : 5,
                        "NORMAL" : 6
                    },
                    "indices" : 7,
                    "material" : 0
                }
            ]
        },
        {
            "name" : "map.osm_buildings.017",
            "primitives" : [
                {
                    "attributes" : {
                        "POSITION" : 8,
                        "TEXCOORD_0" : 9,
                        "NORMAL" : 10
                    },
                    "indices" : 11,
                    "material" : 0
                }
            ]
        },
        {
            "name" : "map.osm_buildings.039",
            "primitives" : [
                {
                    "attributes" : {
                        "POSITION" : 12,
                        "TEXCOORD_0" : 13,
                        "NORMAL" : 14
                    },
                    "indices" : 15,
                    "material" : 0
                }
            ]
        }
    ],
    "textures" : [
        {
            "sampler" : 0,
            "source" : 0
        }
    ],
    "images" : [
        {
            "mimeType" : "image/png",
            "name" : "usthb_pallette",
            "uri" : "usthb_pallette.png"
        }
    ],
    "accessors" : [
        {
            "bufferView" : 0,
            "componentType" : 5126,
            "count" : 38464,
            "max" : [
                28.020841598510742,
                28.126720428466797,
                317.3625793457031
            ],
            "min" : [
                -205.47555541992188,
                10.015880584716797,
                147.4091796875
            ],
            "type" : "VEC3"
        },
        {
            "bufferView" : 1,
            "componentType" : 5126,
            "count" : 38464,
            "type" : "VEC2"
        },
        {
            "bufferView" : 2,
            "componentType" : 5126,
            "count" : 38464,
            "type" : "VEC3"
        },
        {
            "bufferView" : 3,
            "componentType" : 5123,
            "count" : 62457,
            "type" : "SCALAR"
        },
        {
            "bufferView" : 4,
            "componentType" : 5126,
            "count" : 29,
            "max" : [
                -75.12102508544922,
                18.39048957824707,
                249.33143615722656
            ],
            "min" : [
                -85.75316619873047,
                10.016923904418945,
                240.7278289794922
            ],
            "type" : "VEC3"
        },
        {
            "bufferView" : 5,
            "componentType" : 5126,
            "count" : 29,
            "type" : "VEC2"
        },
        {
            "bufferView" : 6,
            "componentType" : 5126,
            "count" : 29,
            "type" : "VEC3"
        },
        {
            "bufferView" : 7,
            "componentType" : 5123,
            "count" : 51,
            "type" : "SCALAR"
        },
        {
            "bufferView" : 8,
            "componentType" : 5126,
            "count" : 78512,
            "max" : [
                230.83184814453125,
                42.737972259521484,
                -360.91314697265625
            ],
            "min" : [
                91.87676239013672,
                10.030614852905273,
                -511.27825927734375
            ],
            "type" : "VEC3"
        },
        {
            "bufferView" : 9,
            "componentType" : 5126,
            "count" : 78512,
            "type" : "VEC2"
        },
        {
            "bufferView" : 10,
            "componentType" : 5126,
            "count" : 78512,
            "type" : "VEC3"
        },
        {
            "bufferView" : 11,
            "componentType" : 5125,
            "count" : 130032,
            "type" : "SCALAR"
        },
        {
            "bufferView" : 12,
            "componentType" : 5126,
            "count" : 36843,
            "max" : [
                62.89759063720703,
                28.126720428466797,
                377.34161376953125
            ],
            "min" : [
                -170.5988006591797,
                10.016923904418945,
                207.40118408203125
            ],
            "type" : "VEC3"
        },
        {
            "bufferView" : 13,
            "componentType" : 5126,
            "count" : 36843,
            "type" : "VEC2"
        },
        {
            "bufferView" : 14,
            "componentType" : 5126,
            "count" : 36843,
            "type" : "VEC3"
        },
        {
            "bufferView" : 15,
            "componentType" : 5123,
            "count" : 58446,
            "type" : "SCALAR"
        }
    ],
    "bufferViews" : [
        {
            "buffer" : 0,
            "byteLength" : 461568,
            "byteOffset" : 0,
            "target" : 34962
        },
        {
            "buffer" : 0,
            "byteLength" : 307712,
            "byteOffset" : 461568,
            "target" : 34962
        },
        {
            "buffer" : 0,
            "byteLength" : 461568,
            "byteOffset" : 769280,
            "target" : 34962
        },
        {
            "buffer" : 0,
            "byteLength" : 124914,
            "byteOffset" : 1230848,
            "target" : 34963
        },
        {
            "buffer" : 0,
            "byteLength" : 348,
            "byteOffset" : 1355764,
            "target" : 34962
        },
        {
            "buffer" : 0,
            "byteLength" : 232,
            "byteOffset" : 1356112,
            "target" : 34962
        },
        {
            "buffer" : 0,
            "byteLength" : 348,
            "byteOffset" : 1356344,
            "target" : 34962
        },
        {
            "buffer" : 0,
            "byteLength" : 102,
            "byteOffset" : 1356692,
            "target" : 34963
        },
        {
            "buffer" : 0,
            "byteLength" : 942144,
            "byteOffset" : 1356796,
            "target" : 34962
        },
        {
            "buffer" : 0,
            "byteLength" : 628096,
            "byteOffset" : 2298940,
            "target" : 34962
        },
        {
            "buffer" : 0,
            "byteLength" : 942144,
            "byteOffset" : 2927036,
            "target" : 34962
        },
        {
            "buffer" : 0,
            "byteLength" : 520128,
            "byteOffset" : 3869180,
            "target" : 34963
        },
        {
            "buffer" : 0,
            "byteLength" : 442116,
            "byteOffset" : 4389308,
            "target" : 34962
        },
        {
            "buffer" : 0,
            "byteLength" : 294744,
            "byteOffset" : 4831424,
            "target" : 34962
        },
        {
            "buffer" : 0,
            "byteLength" : 442116,
            "byteOffset" : 5126168,
            "target" : 34962
        },
        {
            "buffer" : 0,
            "byteLength" : 116892,
            "byteOffset" : 5568284,
            "target" : 34963
        }
    ],
    "samplers" : [
        {
            "magFilter" : 9728,
            "minFilter" : 9984
        }
    ],
    "buffers" : [
        {
            "byteLength" : 5685176,
            "uri" : "td to math.bin"
        }
    ]
}
