{
    "asset" : {
        "generator" : "Khronos glTF Blender I/O v3.4.49",
        "version" : "2.0"
    },
    "scene" : 0,
    "scenes" : [
        {
            "name" : "Scene",
            "nodes" : [
                0,
                1,
                2
            ]
        }
    ],
    "nodes" : [
        {
            "mesh" : 0,
            "name" : "amphiM-X",
            "rotation" : [
                0,
                -0.2915080487728119,
                0,
                0.9565684199333191
            ],
            "translation" : [
                4.881313800811768,
                0,
                -0.3829675316810608
            ]
        },
        {
            "mesh" : 1,
            "name" : "dep info",
            "rotation" : [
                0,
                -0.2915080487728119,
                0,
                0.9565684199333191
            ],
            "translation" : [
                -131.2772216796875,
                0,
                -88.8369140625
            ]
        },
        {
            "mesh" : 2,
            "name" : "amphiA-L",
            "rotation" : [
                0,
                -0.2915080487728119,
                0,
                0.9565684199333191
            ],
            "translation" : [
                4.881313800811768,
                0,
                -0.3829675316810608
            ]
        }
    ],
    "materials" : [
        {
            "doubleSided" : true,
            "name" : "wall",
            "pbrMetallicRoughness" : {
                "baseColorTexture" : {
                    "index" : 0
                },
                "metallicFactor" : 0,
                "roughnessFactor" : 0.5
            }
        }
    ],
    "meshes" : [
        {
            "name" : "map.osm_buildings.009",
            "primitives" : [
                {
                    "attributes" : {
                        "POSITION" : 0,
                        "TEXCOORD_0" : 1,
                        "NORMAL" : 2
                    },
                    "indices" : 3,
                    "material" : 0
                }
            ]
        },
        {
            "name" : "map.osm_buildings.031",
            "primitives" : [
                {
                    "attributes" : {
                        "POSITION" : 4,
                        "TEXCOORD_0" : 5,
                        "NORMAL" : 6
                    },
                    "indices" : 7,
                    "material" : 0
                }
            ]
        },
        {
            "name" : "map.osm_buildings.041",
            "primitives" : [
                {
                    "attributes" : {
                        "POSITION" : 8,
                        "TEXCOORD_0" : 9,
                        "NORMAL" : 10
                    },
                    "indices" : 11,
                    "material" : 0
                }
            ]
        }
    ],
    "textures" : [
        {
            "sampler" : 0,
            "source" : 0
        }
    ],
    "images" : [
        {
            "mimeType" : "image/png",
            "name" : "usthb_pallette",
            "uri" : "usthb_pallette.png"
        }
    ],
    "accessors" : [
        {
            "bufferView" : 0,
            "componentType" : 5126,
            "count" : 15715,
            "max" : [
                76.65042114257812,
                20.322229385375977,
                414.65771484375
            ],
            "min" : [
                -143.73660278320312,
                10.062215805053711,
                253.52291870117188
            ],
            "type" : "VEC3"
        },
        {
            "bufferView" : 1,
            "componentType" : 5126,
            "count" : 15715,
            "type" : "VEC2"
        },
        {
            "bufferView" : 2,
            "componentType" : 5126,
            "count" : 15715,
            "type" : "VEC3"
        },
        {
            "bufferView" : 3,
            "componentType" : 5123,
            "count" : 26844,
            "type" : "SCALAR"
        },
        {
            "bufferView" : 4,
            "componentType" : 5126,
            "count" : 9714,
            "max" : [
                361.7630920410156,
                27.946598052978516,
                -185.85472106933594
            ],
            "min" : [
                263.23712158203125,
                10.015100479125977,
                -323.1536560058594
            ],
            "type" : "VEC3"
        },
        {
            "bufferView" : 5,
            "componentType" : 5126,
            "count" : 9714,
            "type" : "VEC2"
        },
        {
            "bufferView" : 6,
            "componentType" : 5126,
            "count" : 9714,
            "type" : "VEC3"
        },
        {
            "bufferView" : 7,
            "componentType" : 5123,
            "count" : 16062,
            "type" : "SCALAR"
        },
        {
            "bufferView" : 8,
            "componentType" : 5126,
            "count" : 15256,
            "max" : [
                -27.398414611816406,
                20.322229385375977,
                278.174560546875
            ],
            "min" : [
                -237.48104858398438,
                7.703642845153809,
                122.60916137695312
            ],
            "type" : "VEC3"
        },
        {
            "bufferView" : 9,
            "componentType" : 5126,
            "count" : 15256,
            "type" : "VEC2"
        },
        {
            "bufferView" : 10,
            "componentType" : 5126,
            "count" : 15256,
            "type" : "VEC3"
        },
        {
            "bufferView" : 11,
            "componentType" : 5123,
            "count" : 25482,
            "type" : "SCALAR"
        }
    ],
    "bufferViews" : [
        {
            "buffer" : 0,
            "byteLength" : 188580,
            "byteOffset" : 0,
            "target" : 34962
        },
        {
            "buffer" : 0,
            "byteLength" : 125720,
            "byteOffset" : 188580,
            "target" : 34962
        },
        {
            "buffer" : 0,
            "byteLength" : 188580,
            "byteOffset" : 314300,
            "target" : 34962
        },
        {
            "buffer" : 0,
            "byteLength" : 53688,
            "byteOffset" : 502880,
            "target" : 34963
        },
        {
            "buffer" : 0,
            "byteLength" : 116568,
            "byteOffset" : 556568,
            "target" : 34962
        },
        {
            "buffer" : 0,
            "byteLength" : 77712,
            "byteOffset" : 673136,
            "target" : 34962
        },
        {
            "buffer" : 0,
            "byteLength" : 116568,
            "byteOffset" : 750848,
            "target" : 34962
        },
        {
            "buffer" : 0,
            "byteLength" : 32124,
            "byteOffset" : 867416,
            "target" : 34963
        },
        {
            "buffer" : 0,
            "byteLength" : 183072,
            "byteOffset" : 899540,
            "target" : 34962
        },
        {
            "buffer" : 0,
            "byteLength" : 122048,
            "byteOffset" : 1082612,
            "target" : 34962
        },
        {
            "buffer" : 0,
            "byteLength" : 183072,
            "byteOffset" : 1204660,
            "target" : 34962
        },
        {
            "buffer" : 0,
            "byteLength" : 50964,
            "byteOffset" : 1387732,
            "target" : 34963
        }
    ],
    "samplers" : [
        {
            "magFilter" : 9728,
            "minFilter" : 9984
        }
    ],
    "buffers" : [
        {
            "byteLength" : 1438696,
            "uri" : "amphis to info.bin"
        }
    ]
}
